<svg width="24" height="24" viewBox="0 0 24 24" fill="none" xmlns="http://www.w3.org/2000/svg">
<circle cx="12" cy="12" r="11.5" stroke="#899D9D"/>
<path d="M4.06856 14.568C4.99656 13.7147 5.6739 13.0747 6.10056 12.648C6.52723 12.2107 6.8259 11.8373 6.99656 11.528C7.1779 11.2187 7.26856 10.904 7.26856 10.584C7.26856 10.1893 7.16723 9.848 6.96456 9.56C6.7619 9.26133 6.4739 9.112 6.10056 9.112C5.7059 9.112 5.38056 9.288 5.12456 9.64C4.87923 9.98133 4.62856 10.5147 4.37256 11.24C4.37256 11.2507 4.35123 11.256 4.30856 11.256C4.21256 11.256 4.1699 11.24 4.18056 11.208L4.88456 8.472C4.88456 8.45067 4.9059 8.44 4.94856 8.44C4.98056 8.44 5.00723 8.45067 5.02856 8.472C5.06056 8.48267 5.07123 8.49333 5.06056 8.504C5.0499 8.55733 5.04456 8.62133 5.04456 8.696C5.04456 8.87733 5.12456 8.968 5.28456 8.968C5.38056 8.968 5.54056 8.93067 5.76456 8.856C6.22323 8.696 6.64456 8.616 7.02856 8.616C7.61523 8.616 8.0739 8.75467 8.40456 9.032C8.73523 9.30933 8.90056 9.67733 8.90056 10.136C8.90056 10.6907 8.6819 11.1973 8.24456 11.656C7.8179 12.104 7.2259 12.5947 6.46856 13.128L5.82856 13.608C5.79656 13.64 5.7859 13.6667 5.79656 13.688C5.8179 13.7093 5.85523 13.72 5.90856 13.72C6.7619 13.72 7.4019 13.704 7.82856 13.672C8.2659 13.64 8.60723 13.5707 8.85256 13.464C9.10856 13.3467 9.2739 13.1653 9.34856 12.92C9.35923 12.888 9.39123 12.872 9.44456 12.872C9.50856 12.872 9.54056 12.888 9.54056 12.92L9.20456 14.824C9.20456 14.8667 9.18856 14.9093 9.15656 14.952C9.13523 14.984 9.10323 15 9.06056 15H4.16456C4.1219 15 4.08456 14.968 4.05256 14.904C4.03123 14.84 4.02056 14.776 4.02056 14.712C4.02056 14.648 4.03656 14.6 4.06856 14.568ZM11.5941 15.176C11.2954 15.176 11.0554 15.0907 10.8741 14.92C10.7034 14.7387 10.6181 14.4987 10.6181 14.2C10.6181 13.9227 10.7034 13.6987 10.8741 13.528C11.0554 13.3573 11.2954 13.272 11.5941 13.272C11.8927 13.272 12.1221 13.3573 12.2821 13.528C12.4527 13.688 12.5381 13.912 12.5381 14.2C12.5381 14.5093 12.4527 14.7493 12.2821 14.92C12.1221 15.0907 11.8927 15.176 11.5941 15.176ZM19.9466 14.232C19.9786 14.232 19.9946 14.3173 19.9946 14.488C19.9946 14.6053 19.9839 14.7173 19.9626 14.824C19.9519 14.9307 19.9359 14.984 19.9146 14.984L18.8586 14.936V17.16C18.8586 17.2667 18.8159 17.3413 18.7306 17.384L17.4666 18.008C17.4026 18.0293 17.3706 18.04 17.3706 18.04C17.3386 18.04 17.3226 17.9973 17.3226 17.912V14.888C16.6826 14.8773 15.4986 14.872 13.7706 14.872C13.7172 14.872 13.6746 14.8507 13.6426 14.808C13.6106 14.7653 13.6159 14.7227 13.6586 14.68L18.6186 8.664C18.6399 8.64267 18.6719 8.632 18.7146 8.632C18.7466 8.632 18.7786 8.64267 18.8106 8.664C18.8426 8.67467 18.8586 8.696 18.8586 8.728V14.264C19.0719 14.264 19.4346 14.2533 19.9466 14.232ZM14.7306 14.328C15.9679 14.328 16.8319 14.3227 17.3226 14.312V11.08L14.6506 14.216C14.5866 14.2907 14.6132 14.328 14.7306 14.328Z" fill="#899D9D"/>
</svg>
